<svg width="25" height="24" viewBox="0 0 25 24" fill="none" xmlns="http://www.w3.org/2000/svg">
<g opacity="0.5">
<path d="M13.2171 2.00009C13.9734 2.00009 14.6581 2.42009 15.0362 3.04009C15.2202 3.34009 15.3428 3.71009 15.3122 4.10009C15.2917 4.40009 15.3837 4.70009 15.5472 4.98009C16.0684 5.83009 17.2232 6.15009 18.1225 5.67009C19.1343 5.09009 20.4117 5.44009 20.9942 6.43009L21.6789 7.61009C22.2717 8.60009 21.9447 9.87009 20.9227 10.4401C20.054 10.9501 19.7474 12.0801 20.2686 12.9401C20.4322 13.2101 20.6161 13.4401 20.9023 13.5801C21.2599 13.7701 21.5359 14.0701 21.73 14.3701C22.1082 14.9901 22.0775 15.7501 21.7096 16.4201L20.9942 17.6201C20.6161 18.2601 19.911 18.6601 19.1854 18.6601C18.8277 18.6601 18.4291 18.5601 18.1021 18.3601C17.8364 18.1901 17.5298 18.1301 17.2028 18.1301C16.191 18.1301 15.3428 18.9601 15.3122 19.9501C15.3122 21.1001 14.372 22.0001 13.1967 22.0001H11.8068C10.6214 22.0001 9.68117 21.1001 9.68117 19.9501C9.66073 18.9601 8.81251 18.1301 7.80077 18.1301C7.46352 18.1301 7.15693 18.1901 6.90145 18.3601C6.57442 18.5601 6.16564 18.6601 5.81817 18.6601C5.08236 18.6601 4.37721 18.2601 3.99909 17.6201L3.29394 16.4201C2.91581 15.7701 2.89537 14.9901 3.2735 14.3701C3.43701 14.0701 3.7436 13.7701 4.09106 13.5801C4.37721 13.4401 4.56116 13.2101 4.7349 12.9401C5.24587 12.0801 4.93929 10.9501 4.07062 10.4401C3.05889 9.87009 2.73186 8.60009 3.31438 7.61009L3.99909 6.43009C4.59182 5.44009 5.85905 5.09009 6.88101 5.67009C7.77011 6.15009 8.92492 5.83009 9.44612 4.98009C9.60963 4.70009 9.70161 4.40009 9.68117 4.10009C9.66073 3.71009 9.77315 3.34009 9.96732 3.04009C10.3454 2.42009 11.0302 2.02009 11.7762 2.00009H13.2171ZM12.512 9.18009C10.9075 9.18009 9.60963 10.4401 9.60963 12.0101C9.60963 13.5801 10.9075 14.8301 12.512 14.8301C14.1165 14.8301 15.3837 13.5801 15.3837 12.0101C15.3837 10.4401 14.1165 9.18009 12.512 9.18009Z" fill="white"/>
</g>
</svg>
