<svg width="25" height="24" viewBox="0 0 25 24" fill="none" xmlns="http://www.w3.org/2000/svg">
<g opacity="0.5">
<path d="M8.7798 2.50052C9.4098 2.51968 10.0198 2.62968 10.6108 2.83068H10.6698C10.7098 2.84968 10.7398 2.87068 10.7598 2.88968C10.9808 2.96068 11.1898 3.04068 11.3898 3.15068L11.7698 3.32068C11.9198 3.40068 12.0998 3.54968 12.1998 3.61068C12.2998 3.66968 12.4098 3.73068 12.4998 3.79968C13.6108 2.95068 14.9598 2.49068 16.3498 2.50052C16.9808 2.50052 17.6108 2.58968 18.2098 2.79068C21.9008 3.99068 23.2308 8.04068 22.1198 11.5807C21.4898 13.3897 20.4598 15.0407 19.1108 16.3897C17.1798 18.2597 15.0608 19.9197 12.7798 21.3497L12.5298 21.5007L12.2698 21.3397C9.9808 19.9197 7.8498 18.2597 5.9008 16.3797C4.5608 15.0307 3.5298 13.3897 2.8898 11.5807C1.7598 8.04068 3.0898 3.99068 6.8208 2.76968C7.1108 2.66968 7.4098 2.59968 7.7098 2.56068H7.8298C8.1108 2.51968 8.3898 2.50052 8.6698 2.50052H8.7798ZM17.6898 5.66068C17.2798 5.51968 16.8298 5.74068 16.6798 6.16068C16.5398 6.58068 16.7598 7.04068 17.1798 7.18968C17.8208 7.42968 18.2498 8.06068 18.2498 8.75968V8.79068C18.2308 9.01968 18.2998 9.24068 18.4398 9.41068C18.5798 9.58068 18.7898 9.67968 19.0098 9.70068C19.4198 9.68968 19.7698 9.36068 19.7998 8.93968V8.82068C19.8298 7.41968 18.9808 6.15068 17.6898 5.66068Z" fill="white"/>
</g>
</svg>
